<?xml version="1.0" encoding="utf-8"?>
<!-- Generator: Adobe Illustrator 14.0.0, SVG Export Plug-In . SVG Version: 6.00 Build 43363)  -->
<!DOCTYPE svg PUBLIC "-//W3C//DTD SVG 1.1//EN" "http://www.w3.org/Graphics/SVG/1.1/DTD/svg11.dtd">
<svg version="1.1" id="Layer_1" xmlns="http://www.w3.org/2000/svg" xmlns:xlink="http://www.w3.org/1999/xlink" x="0px" y="0px"
	 width="30px" height="30px" viewBox="0 0 30 30" enable-background="new 0 0 30 30" xml:space="preserve">
<path display="none" fill="none" stroke="#010101" stroke-width="0.1993" d="M2.142,21.682L2.142,21.682
	c4.477-2.242,2.825-6.479,3.547-6.479s1.445,2.143,1.445,5.406c0,3.263-1.794,5.381-3.67,6.5c0,0-0.584-4.15-1.205-5.246
	C2.222,21.797,2.183,21.738,2.142,21.682z M-2.142,21.682L-2.142,21.682c-4.477-2.242-2.824-6.479-3.547-6.479
	s-1.445,2.143-1.445,5.406c0,3.263,1.794,5.381,3.671,6.5c0,0,0.583-4.15,1.204-5.246C-2.222,21.797-2.182,21.738-2.142,21.682z
	 M-0.744,20.219H-1.96c0,0,0,0.648,0.579,0.848c0.258,0.006,0.619,0.008,1.032,0.009v-0.854
	C-0.475,20.219-0.607,20.219-0.744,20.219z M0.35,21.074c0.413-0.001,0.774-0.004,1.031-0.008c0.579-0.199,0.579-0.849,0.579-0.849
	H0.744c-0.137,0-0.269,0-0.395,0L0.35,21.074L0.35,21.074z M-0.349,19.057c-0.358,0-0.834,0-1.263,0H-2.54c0,0,0,0.955,0.579,1.154
	c0.21,0.004,0.725,0.007,1.216,0.008h0.396V19.057z M0.35,19.057v1.162h0.395c0.491-0.001,1.006-0.004,1.216-0.008
	c0.579-0.199,0.579-1.154,0.579-1.154H1.612C1.184,19.057,0.708,19.057,0.35,19.057z M0.35,20.219c0.126,0,0.258,0,0.395,0H0.35
	L0.35,20.219z M-0.349,20.219h-0.396C-0.607,20.219-0.475,20.219-0.349,20.219L-0.349,20.219z M0.35,17.578v1.479h1.262
	c0.421,0,0.791-0.002,0.927-0.004c0.58-0.199,0.58-1.471,0.58-1.471L0.35,17.578z M-0.349,17.578l-2.77,0.004
	c0,0,0,1.271,0.579,1.471c0.137,0.002,0.506,0.004,0.928,0.004h1.263V17.578z M-0.349,19.057L-0.349,19.057h-1.263
	C-1.183,19.057-0.707,19.057-0.349,19.057z M0.35,19.057c0.359,0,0.834,0,1.262,0H0.35L0.35,19.057z M2.259,21.863
	c-0.471-0.831-1.183-0.821-1.909-0.803v0.014v5.707c0,0.193-0.157,0.352-0.35,0.352s-0.349-0.158-0.349-0.352v-5.707v-0.014
	c-0.727-0.02-1.438-0.029-1.91,0.803c-1.13,1.994-1.461,7.455-1.461,9.965c0,5.115,2.1,12.556,3.72,12.556s3.721-7.438,3.721-12.556
	C3.721,29.318,3.389,23.857,2.259,21.863z M0,15c-0.192,0-0.349,0.156-0.349,0.352v2.227v1.479v1.162v0.842v0.014v5.707
	c0,0.193,0.156,0.352,0.349,0.352s0.35-0.158,0.35-0.352v-5.707v-0.014v-0.842v-1.162v-1.479v-2.227C0.35,15.156,0.192,15,0,15z
	 M0,32.493c0.661,0,1.196,0.534,1.196,1.194S0.661,34.884,0,34.884c-0.427,0-0.801-0.224-1.012-0.561L-2.251,35.1
	c0.555,0.883,1.604,1.394,2.696,1.207c1.446-0.244,2.42-1.617,2.175-3.063c-0.246-1.446-1.618-2.42-3.065-2.175
	c-0.761,0.13-1.39,0.572-1.779,1.173l1.223,0.796C-0.788,32.71-0.42,32.493,0,32.493z M-2.62,34.134
	c0.061,0.354,0.188,0.681,0.369,0.968l1.239-0.777c-0.116-0.184-0.185-0.401-0.185-0.635c0-0.24,0.072-0.465,0.194-0.651
	l-1.223-0.796C-2.576,32.781-2.736,33.448-2.62,34.134z M-1.852,41.854h3.703c0.227-0.578,0.443-1.228,0.644-1.928h-4.99
	C-2.295,40.627-2.078,41.275-1.852,41.854z"/>
<g id="rocket">
	
		<linearGradient id="body_outline_1_" gradientUnits="userSpaceOnUse" x1="26.2676" y1="-3.0366" x2="33.7324" y2="-3.0366" gradientTransform="matrix(-1 0 0 -1 30 30)">
		<stop  offset="0" style="stop-color:#A61619"/>
		<stop  offset="0.3879" style="stop-color:#E74C1D"/>
		<stop  offset="0.5966" style="stop-color:#E74C1D"/>
		<stop  offset="0.9966" style="stop-color:#A61619"/>
	</linearGradient>
	<path id="body_outline" fill="url(#body_outline_1_)" stroke="#313035" stroke-width="0.1999" d="M0,44.739
		c1.625,0,3.732-7.465,3.732-12.598c0-2.517-0.334-7.996-1.467-9.996C1.717,21.179,0.844,21.345,0,21.345s-1.718-0.166-2.267,0.801
		c-1.133,2-1.466,7.479-1.466,9.996C-3.732,37.274-1.625,44.739,0,44.739z"/>
	
		<linearGradient id="left_fin_1_" gradientUnits="userSpaceOnUse" x1="22.8438" y1="8.5635" x2="27.8516" y2="8.5635" gradientTransform="matrix(-1 0 0 -1 30 30)">
		<stop  offset="0" style="stop-color:#333333"/>
		<stop  offset="1" style="stop-color:#1A1A1A"/>
	</linearGradient>
	<path id="left_fin" fill="url(#left_fin_1_)" stroke="#313035" stroke-width="0.1999" d="M2.266,22.146
		c0.623,1.1,1.209,5.264,1.209,5.264c1.883-1.123,3.682-3.248,3.682-6.521c0-3.275-0.725-5.424-1.449-5.424s0.932,4.252-3.559,6.5
		l0,0C2.189,22.019,2.229,22.079,2.266,22.146z"/>
	
		<linearGradient id="right_fin_1_" gradientUnits="userSpaceOnUse" x1="32.1484" y1="8.5635" x2="37.1562" y2="8.5635" gradientTransform="matrix(-1 0 0 -1 30 30)">
		<stop  offset="0" style="stop-color:#1A1A1A"/>
		<stop  offset="1" style="stop-color:#333333"/>
	</linearGradient>
	<path id="right_fin" fill="url(#right_fin_1_)" stroke="#313035" stroke-width="0.1999" d="M-2.267,22.146
		c-0.622,1.1-1.208,5.264-1.208,5.264c-1.882-1.123-3.682-3.248-3.682-6.521c0-3.275,0.724-5.424,1.449-5.424
		c0.725,0-0.933,4.252,3.558,6.5c0,0,0,0,0.001,0C-2.189,22.019-2.229,22.079-2.267,22.146z"/>
	<path id="mid_fin" fill="#524F56" stroke="#313035" stroke-width="0.1999" d="M-0.351,15.612c0-0.193,0.158-0.352,0.351-0.352l0,0
		c0.193,0,0.35,0.158,0.35,0.352v11.467c0,0.195-0.157,0.354-0.35,0.354l0,0c-0.192,0-0.351-0.158-0.351-0.354V15.612z"/>
	
		<linearGradient id="exr3_1_" gradientUnits="userSpaceOnUse" x1="30.3018" y1="9.3535" x2="31.8022" y2="8.866" gradientTransform="matrix(-1 0 0 -1 30 30)">
		<stop  offset="0" style="stop-color:#1A1A1A"/>
		<stop  offset="0.1" style="stop-color:#FFFFFF"/>
		<stop  offset="1" style="stop-color:#1A1A1A"/>
	</linearGradient>
	<path id="exr3" fill="url(#exr3_1_)" stroke="#313035" stroke-width="0.2008" d="M-1.967,20.497c0,0,0,0.648,0.581,0.848
		c0.259,0.006,0.62,0.008,1.035,0.01v-0.857H-1.967z"/>
	
		<linearGradient id="exr2_1_" gradientUnits="userSpaceOnUse" x1="30.2852" y1="10.4658" x2="32.3554" y2="9.7932" gradientTransform="matrix(-1 0 0 -1 30 30)">
		<stop  offset="0" style="stop-color:#1A1A1A"/>
		<stop  offset="0.1" style="stop-color:#FFFFFF"/>
		<stop  offset="1" style="stop-color:#1A1A1A"/>
	</linearGradient>
	<path id="exr2" fill="url(#exr2_1_)" stroke="#313035" stroke-width="0.2008" d="M-1.751,19.329h-0.796c0,0,0,0.959,0.58,1.158
		c0.27,0.006,1.039,0.008,1.616,0.01v-1.166C-0.746,19.331-1.293,19.331-1.751,19.329z"/>
	
		<linearGradient id="exr1_1_" gradientUnits="userSpaceOnUse" x1="30.2646" y1="11.8901" x2="32.9205" y2="11.0272" gradientTransform="matrix(-1 0 0 -1 30 30)">
		<stop  offset="0" style="stop-color:#1A1A1A"/>
		<stop  offset="0.1" style="stop-color:#FFFFFF"/>
		<stop  offset="1" style="stop-color:#1A1A1A"/>
	</linearGradient>
	<path id="exr1" fill="url(#exr1_1_)" stroke="#313035" stroke-width="0.2008" d="M-0.351,17.847l-2.777,0.004
		c0,0,0,1.275,0.581,1.475c0.122,0.002,0.43,0.004,0.796,0.004h1.4V17.847z"/>
	
		<linearGradient id="exl3_1_" gradientUnits="userSpaceOnUse" x1="28.1904" y1="8.875" x2="29.7024" y2="9.3373" gradientTransform="matrix(-1 0 0 -1 30 30)">
		<stop  offset="0" style="stop-color:#1A1A1A"/>
		<stop  offset="0.9" style="stop-color:#FFFFFF"/>
		<stop  offset="1" style="stop-color:#1A1A1A"/>
	</linearGradient>
	<path id="exl3" fill="url(#exl3_1_)" stroke="#313035" stroke-width="0.2008" d="M1.385,21.345
		c0.581-0.199,0.581-0.848,0.581-0.848H0.35v0.857C0.765,21.353,1.127,21.351,1.385,21.345z"/>
	
		<linearGradient id="exl2_1_" gradientUnits="userSpaceOnUse" x1="27.6348" y1="9.8066" x2="29.7183" y2="10.4436" gradientTransform="matrix(-1 0 0 -1 30 30)">
		<stop  offset="0" style="stop-color:#1A1A1A"/>
		<stop  offset="0.9" style="stop-color:#FFFFFF"/>
		<stop  offset="1" style="stop-color:#1A1A1A"/>
	</linearGradient>
	<path id="exl2" fill="url(#exl2_1_)" stroke="#313035" stroke-width="0.2008" d="M0.35,19.331v1.166
		c0.578-0.002,1.347-0.004,1.616-0.01c0.581-0.199,0.581-1.158,0.581-1.158H1.751C1.293,19.331,0.746,19.331,0.35,19.331z"/>
	
		<linearGradient id="exl1_1_" gradientUnits="userSpaceOnUse" x1="27.0693" y1="11.0459" x2="29.7393" y2="11.8622" gradientTransform="matrix(-1 0 0 -1 30 30)">
		<stop  offset="0" style="stop-color:#1A1A1A"/>
		<stop  offset="0.9" style="stop-color:#FFFFFF"/>
		<stop  offset="1" style="stop-color:#1A1A1A"/>
	</linearGradient>
	<path id="exl1" fill="url(#exl1_1_)" stroke="#313035" stroke-width="0.2008" d="M1.751,19.329c0.366,0,0.674-0.002,0.796-0.004
		c0.582-0.199,0.582-1.475,0.582-1.475L0.35,17.847v1.482H1.751z"/>
	
		<radialGradient id="SVGID_1_" cx="30" cy="-3.9912" r="2.4282" gradientTransform="matrix(-1 0 0 -1 30 30)" gradientUnits="userSpaceOnUse">
		<stop  offset="0.2397" style="stop-color:#454545"/>
		<stop  offset="0.6034" style="stop-color:#1A1A1A"/>
	</radialGradient>
	<circle fill="url(#SVGID_1_)" stroke="#313035" stroke-width="0.3642" cx="0" cy="33.991" r="2.428"/>
	<path id="C_major" fill="#65CCCA" d="M0,32.915c0.603,0,1.092,0.489,1.092,1.093S0.603,35.101,0,35.101
		c-0.39,0-0.73-0.206-0.925-0.514l-1.132,0.711c0.507,0.807,1.465,1.272,2.463,1.104c1.321-0.225,2.211-1.479,1.987-2.801
		c-0.226-1.321-1.479-2.211-2.801-1.986c-0.695,0.118-1.269,0.522-1.626,1.07l1.118,0.728C-0.721,33.113-0.383,32.915,0,32.915z"/>
	<path id="C_minor" fill="#CAE3E3" d="M-2.394,34.414c0.056,0.324,0.173,0.621,0.337,0.884l1.132-0.711
		c-0.106-0.168-0.168-0.366-0.168-0.579c0-0.22,0.065-0.424,0.178-0.596l-1.118-0.728C-2.354,33.179-2.499,33.788-2.394,34.414z"/>
	
		<linearGradient id="nose_band_1_" gradientUnits="userSpaceOnUse" x1="27.4971" y1="-11.2339" x2="32.5029" y2="-11.2339" gradientTransform="matrix(-1 0 0 -1 30 30)">
		<stop  offset="0" style="stop-color:#1A1A1A"/>
		<stop  offset="0.5655" style="stop-color:#FFFFFF"/>
		<stop  offset="1" style="stop-color:#1A1A1A"/>
	</linearGradient>
	<path id="nose_band" fill="url(#nose_band_1_)" stroke="#313035" stroke-width="0.1999" d="M-1.858,42.2h3.716
		c0.227-0.578,0.444-1.231,0.646-1.933h-5.006C-2.303,40.969-2.085,41.622-1.858,42.2z"/>
</g>
</svg>
